<?xml version="1.0" encoding="UTF-8" standalone="no"?>
<svg
   xmlns:ns="http://ns.adobe.com/SaveForWeb/1.0/"
   xmlns:dc="http://purl.org/dc/elements/1.1/"
   xmlns:cc="http://creativecommons.org/ns#"
   xmlns:rdf="http://www.w3.org/1999/02/22-rdf-syntax-ns#"
   xmlns:svg="http://www.w3.org/2000/svg"
   xmlns="http://www.w3.org/2000/svg"
   xmlns:sodipodi="http://sodipodi.sourceforge.net/DTD/sodipodi-0.dtd"
   xmlns:inkscape="http://www.inkscape.org/namespaces/inkscape"
   version="1.1"
   x="0px"
   y="0px"
   viewBox="0 0 100 104.8725"
   enable-background="new 0 0 100 83.898"
   xml:space="preserve"
   id="svg10"
   sodipodi:docname="logo_charc.svg"
   inkscape:version="0.92.1 r15371"><defs
     id="defs14" /><sodipodi:namedview
     pagecolor="#ffffff"
     bordercolor="#666666"
     borderopacity="1"
     objecttolerance="10"
     gridtolerance="10"
     guidetolerance="10"
     inkscape:pageopacity="0"
     inkscape:pageshadow="2"
     inkscape:window-width="1062"
     inkscape:window-height="563"
     id="namedview12"
     showgrid="false"
     inkscape:zoom="2.2503517"
     inkscape:cx="50"
     inkscape:cy="52.436249"
     inkscape:window-x="0"
     inkscape:window-y="0"
     inkscape:window-maximized="0"
     inkscape:current-layer="svg10" /><metadata
     id="metadata2"><ns:sfw><ns:slices /><ns:sliceSourceBounds
         width="67.063"
         height="83.52"
         y="255.815"
         x="175.968"
         bottomLeftOrigin="true" /></ns:sfw><rdf:RDF><cc:Work
         rdf:about=""><dc:format>image/svg+xml</dc:format><dc:type
           rdf:resource="http://purl.org/dc/dcmitype/StillImage" /></cc:Work></rdf:RDF></metadata><path
     fill="#000000"
     d="M80.974,12.563c-0.894-4.193-6.76-6.645-6.76-6.645c-0.979-0.41-1.113-1.3-0.294-1.979l2.37-1.968  c0.818-0.679,0.62-1.291-0.441-1.36L68.308,0.12c-1.062-0.07-1.38,0.547-0.711,1.372l1.819,2.236  c0.669,0.824,0.985,1.529,0.702,1.567c0,0,0,0-0.26,0.055c-5.062,1.077-8.29,6.053-7.214,11.114  c1.776,8.345,4.994,34.456-3.24,44.624c-1.437,1.773-3.752,3.811-8.947,3.811c-0.002,0-0.003,0-0.004,0  c-4.125,0-6.972-1.215-9.231-3.938c-7.555-9.102-6.669-32.257-4.337-44.714c0.944-5.013-5.696-9.766-5.696-9.766  c-0.864-0.618-0.902-1.679-0.084-2.358l2.592-2.151c0.817-0.679,0.619-1.291-0.44-1.36L25.711,0.12  c-1.06-0.07-1.379,0.547-0.708,1.372l1.764,2.169c0.67,0.824,0.397,1.785-0.606,2.134c0,0-6.818,2.374-7.689,6.976  c-0.79,4.174-7.27,41.321,8.311,60.133c5.814,7.018,13.998,10.729,23.667,10.73c0.002,0,0.004,0,0.007,0  c9.682,0,17.812-3.719,23.509-10.754C89.238,54.018,81.862,16.751,80.974,12.563z M50.451,77.672  c-7.196,0-13.197-2.447-17.836-7.275c-10.757-11.197-10.081-31.319-10.046-32.17c0.076-1.88,1.672-3.322,3.541-3.268  c1.88,0.076,3.342,1.66,3.268,3.538c-0.009,0.258-0.563,18.126,8.166,27.193c3.348,3.479,7.571,5.17,12.909,5.17  c1.882,0,3.406,1.525,3.406,3.408C53.857,76.149,52.333,77.672,50.451,77.672z"
     id="path4" /></svg>