<svg xmlns="http://www.w3.org/2000/svg" xmlns:xlink="http://www.w3.org/1999/xlink" version="1.1" x="0px" y="0px" viewBox="0 0 107.995 106.495" enable-background="new 0 0 107.995 106.495" xml:space="preserve"><g><path fill="#000000" d="M94.766,30.419l8.021-1.842l-6.697-11.12l-5.558,6.854c-4.8-5.51-11.422-9.499-19.165-10.918   c-6.879-1.262-13.652-0.317-19.594,2.327v-0.001l-0.051,0.025c-1.274,0.567-28.762,14.927-30.26,15.866l-0.015,0.007l0.003,0   C13.511,36.594,7.604,44.758,5.78,54.704c-3.448,18.8,9,36.839,27.802,40.287c8.423,1.545,16.69-0.11,23.566-4.09l0.003,0.006   l0.155-0.099c0.746-0.437,26.572-16.661,27.856-17.608l0.052-0.03l-0.002-0.005c6.59-4.87,11.42-12.154,13.014-20.848   C99.655,44.53,98.254,36.883,94.766,30.419z M52.988,89.487C39.566,97.366,21.6,91.676,12.855,76.781   c-8.746-14.897-4.958-33.359,8.464-41.239c13.419-7.879,31.389-2.189,40.134,12.708C70.198,63.145,66.408,81.608,52.988,89.487z"></path><circle fill="#000000" cx="38.765" cy="44.124" r="6.469"></circle><circle fill="#000000" cx="44.049" cy="60.098" r="3.482"></circle><circle fill="#000000" cx="21.869" cy="56.821" r="5.348"></circle><circle fill="#000000" cx="23.961" cy="75.903" r="3.156"></circle><circle fill="#000000" cx="44.4" cy="81.237" r="5.274"></circle><circle fill="#000000" cx="58.126" cy="67.979" r="2.298"></circle></g></svg>