<?xml version="1.0" encoding="UTF-8" standalone="no"?>
<svg
   xmlns:dc="http://purl.org/dc/elements/1.1/"
   xmlns:cc="http://creativecommons.org/ns#"
   xmlns:rdf="http://www.w3.org/1999/02/22-rdf-syntax-ns#"
   xmlns:svg="http://www.w3.org/2000/svg"
   xmlns="http://www.w3.org/2000/svg"
   xmlns:sodipodi="http://sodipodi.sourceforge.net/DTD/sodipodi-0.dtd"
   xmlns:inkscape="http://www.inkscape.org/namespaces/inkscape"
   version="1.1"
   x="0px"
   y="0px"
   viewBox="0 0 512 640"
   enable-background="new 0 0 512 512"
   xml:space="preserve"
   id="svg22"
   sodipodi:docname="logo_huile_beurre_acombiner2.svg"
   inkscape:version="0.92.1 r15371"><metadata
     id="metadata28"><rdf:RDF><cc:Work
         rdf:about=""><dc:format>image/svg+xml</dc:format><dc:type
           rdf:resource="http://purl.org/dc/dcmitype/StillImage" /></cc:Work></rdf:RDF></metadata><defs
     id="defs26" /><sodipodi:namedview
     pagecolor="#ffffff"
     bordercolor="#666666"
     borderopacity="1"
     objecttolerance="10"
     gridtolerance="10"
     guidetolerance="10"
     inkscape:pageopacity="0"
     inkscape:pageshadow="2"
     inkscape:window-width="3200"
     inkscape:window-height="1644"
     id="namedview24"
     showgrid="false"
     inkscape:zoom="2.0578125"
     inkscape:cx="256"
     inkscape:cy="514.38117"
     inkscape:window-x="-16"
     inkscape:window-y="-16"
     inkscape:window-maximized="1"
     inkscape:current-layer="svg22" /><g
     id="g16"><path
       d="M427.989,435.32H66.361c-4.513,0-8.698,2.352-11.042,6.203c-2.352,3.857-2.519,8.658-0.454,12.667   c14.078,27.265,42.196,44.396,72.881,44.396h238.858c30.685,0,58.802-17.131,72.881-44.396c2.065-4.01,1.897-8.81-0.454-12.667   C436.688,437.672,432.502,435.32,427.989,435.32z"
       id="path10" /><path
       d="M120.643,356.701v36.273c0,10.993,8.904,19.897,19.898,19.897H353.81c10.993,0,19.898-8.904,19.898-19.897v-36.273   c0-38.92-31.546-70.465-70.458-70.465h-22.652l-22.488-20.398c-3.636-3.3-5.772-7.821-6.012-12.724   c-0.246-4.887,1.443-9.59,4.752-13.233c3.293-3.627,7.805-5.764,12.699-5.995c4.768-0.343,9.639,1.483,13.25,4.768   c1.035,0.933,1.666,2.224,1.785,3.635l1.116,13.688c0.726,8.984,8.538,15.737,17.595,14.947   c8.992-0.733,15.682-8.609,14.947-17.594l-1.115-13.672c-0.781-9.734-5.199-18.694-12.405-25.208   c-9.94-9.024-23.382-13.824-36.751-13.186c-13.608,0.662-26.148,6.585-35.309,16.678c-9.176,10.116-13.855,23.183-13.178,36.783   c0.586,11.882,5.377,22.798,13.25,31.511H191.1C152.188,286.235,120.643,317.781,120.643,356.701z"
       id="path12" /><path
       d="M478.078,29.781c-5.596-15.688-22.863-23.908-38.593-18.328L40.707,153.54c-18.225,6.49-27.727,26.54-21.238,44.755   c5.908,16.598,23.23,26.221,40.451,22.466l148.367-32.335c11.76-2.558,21.852-10.061,27.703-20.591   c5.852-10.539,6.889-23.072,2.83-34.424l219.336-64.486c7.963-2.352,14.621-7.868,18.399-15.291   C480.318,46.243,480.868,37.625,478.078,29.781z"
       id="path14" /></g></svg>