<?xml version="1.0" encoding="UTF-8" standalone="no"?>
<svg
   xmlns:dc="http://purl.org/dc/elements/1.1/"
   xmlns:cc="http://creativecommons.org/ns#"
   xmlns:rdf="http://www.w3.org/1999/02/22-rdf-syntax-ns#"
   xmlns:svg="http://www.w3.org/2000/svg"
   xmlns="http://www.w3.org/2000/svg"
   xmlns:sodipodi="http://sodipodi.sourceforge.net/DTD/sodipodi-0.dtd"
   xmlns:inkscape="http://www.inkscape.org/namespaces/inkscape"
   version="1.1"
   x="0px"
   y="0px"
   viewBox="0 0 160.541 315.48125"
   style="enable-background:new 0 0 160.541 252.385;"
   xml:space="preserve"
   id="svg20"
   sodipodi:docname="logo_best.svg"
   inkscape:version="0.92.1 r15371"><metadata
     id="metadata26"><rdf:RDF><cc:Work
         rdf:about=""><dc:format>image/svg+xml</dc:format><dc:type
           rdf:resource="http://purl.org/dc/dcmitype/StillImage" /></cc:Work></rdf:RDF></metadata><defs
     id="defs24" /><sodipodi:namedview
     pagecolor="#ffffff"
     bordercolor="#666666"
     borderopacity="1"
     objecttolerance="10"
     gridtolerance="10"
     guidetolerance="10"
     inkscape:pageopacity="0"
     inkscape:pageshadow="2"
     inkscape:window-width="1062"
     inkscape:window-height="563"
     id="namedview22"
     showgrid="false"
     inkscape:zoom="0.74806345"
     inkscape:cx="80.2705"
     inkscape:cy="157.74063"
     inkscape:window-x="0"
     inkscape:window-y="0"
     inkscape:window-maximized="0"
     inkscape:current-layer="svg20" /><g
     id="g14"><path
       d="M80.272,158.01l-8.787,51.415c3.075-0.167,6.023-0.259,8.785-0.259c2.763,0,5.711,0.092,8.788,0.259L80.272,158.01z"
       id="path2" /><path
       d="M53.798,129.214L42.561,81.336c-0.692-0.229-1.381-0.478-2.07-0.726C12.129,125.565,0,219.667,0,219.667   s18.384-3.801,39.454-6.83l14.084-82.414C53.606,130.027,53.691,129.63,53.798,129.214z"
       id="path4" /><path
       d="M124.481,137.214c-1.952,1.582-4.408,2.452-6.92,2.452c-3.336,0-6.453-1.484-8.552-4.073   c-0.643-0.795-1.165-1.658-1.56-2.571l13.638,79.815c21.069,3.028,39.452,6.83,39.452,6.83s-6.592-51.125-21.414-96.011   C135.152,128.001,130.303,132.489,124.481,137.214z"
       id="path6" /><path
       d="M110.634,120.118c9.673-7.825,14.52-13.583,16.884-17.034c1.034-1.504,1.762-2.796,2.277-3.892   c-1.69-3.798-3.455-7.444-5.297-10.893c-0.781-0.397-1.604-0.779-2.461-1.13c-1.511-0.632-3.188-1.22-5.011-1.756l-8.772,37.374   C108.888,121.787,109.686,120.886,110.634,120.118z"
       id="path8" /><ellipse
       transform="matrix(0.9739 -0.2268 0.2268 0.9739 -6.1691 19.1533)"
       cx="80.271"
       cy="36.425"
       rx="22.495"
       ry="22.495"
       id="ellipse10" /><path
       d="M96.509,241.156c1.125,6.58,6.833,11.229,13.291,11.229c0.754,0,1.52-0.063,2.289-0.195   c7.35-1.257,12.289-8.232,11.032-15.581L105.034,130.76c-0.088-0.515-0.211-1.014-0.353-1.504l10.872-46.325   c2.293,0.595,4.833,1.379,7.24,2.389c3.325,1.36,6.303,3.162,7.98,4.869c1.702,1.797,2.174,2.869,2.231,4.697   c0.013,1.675-0.671,4.719-3.838,9.329c-3.135,4.576-8.657,10.486-17.276,17.458c-3.863,3.129-4.458,8.797-1.328,12.66   c1.779,2.194,4.378,3.333,6.999,3.334c1.99,0,3.993-0.657,5.659-2.007c9.517-7.724,16.221-14.639,20.778-21.246   c4.523-6.574,6.998-13.074,7.008-19.528c0.01-3.663-0.85-7.182-2.307-10.202c-2.576-5.323-6.666-9.014-10.816-11.731   c-6.277-4.059-13.057-6.226-18.407-7.601c-5.342-1.347-9.247-1.801-9.522-1.836c-0.594-0.068-1.18-0.074-1.755-0.028   c-0.492-0.082-0.991-0.138-1.503-0.138H53.843c-0.427,0-0.846,0.038-1.26,0.095c-2.193-0.553-8.242-2.3-13.648-5.455   c-3.28-1.885-6.251-4.245-8.17-6.767c-1.924-2.568-2.947-5.046-2.981-8.51c0.003-2.722,0.722-6.257,3.03-10.874   c2.301-4.601,6.204-10.207,12.273-16.696c3.391-3.63,3.199-9.325-0.434-12.719c-3.632-3.393-9.326-3.201-12.719,0.431   c-6.944,7.436-11.902,14.326-15.213,20.919c-3.303,6.579-4.941,12.939-4.939,18.939c-0.036,7.938,2.981,14.872,7.089,19.962   c6.2,7.691,14.368,11.993,20.905,14.751c2.41,0.999,4.619,1.77,6.473,2.353l11.611,49.477c-0.142,0.49-0.264,0.989-0.352,1.503   L37.42,236.609c-1.255,7.349,3.685,14.325,11.034,15.58c0.77,0.132,1.536,0.195,2.291,0.196c6.457,0,12.164-4.648,13.289-11.227   l15.533-90.898h1.408L96.509,241.156z"
       id="path12" /></g></svg>