<?xml version="1.0" encoding="UTF-8" standalone="no"?>
<svg
   xmlns:dc="http://purl.org/dc/elements/1.1/"
   xmlns:cc="http://creativecommons.org/ns#"
   xmlns:rdf="http://www.w3.org/1999/02/22-rdf-syntax-ns#"
   xmlns:svg="http://www.w3.org/2000/svg"
   xmlns="http://www.w3.org/2000/svg"
   xmlns:sodipodi="http://sodipodi.sourceforge.net/DTD/sodipodi-0.dtd"
   xmlns:inkscape="http://www.inkscape.org/namespaces/inkscape"
   version="1.1"
   x="0px"
   y="0px"
   viewBox="0 0 30 37.5"
   xml:space="preserve"
   id="svg54"
   sodipodi:docname="logo_sport.svg"
   inkscape:version="0.92.1 r15371"><metadata
     id="metadata60"><rdf:RDF><cc:Work
         rdf:about=""><dc:format>image/svg+xml</dc:format><dc:type
           rdf:resource="http://purl.org/dc/dcmitype/StillImage" /></cc:Work></rdf:RDF></metadata><defs
     id="defs58" /><sodipodi:namedview
     pagecolor="#ffffff"
     bordercolor="#666666"
     borderopacity="1"
     objecttolerance="10"
     gridtolerance="10"
     guidetolerance="10"
     inkscape:pageopacity="0"
     inkscape:pageshadow="2"
     inkscape:window-width="3200"
     inkscape:window-height="1644"
     id="namedview56"
     showgrid="false"
     inkscape:zoom="6.2933333"
     inkscape:cx="15"
     inkscape:cy="18.75"
     inkscape:window-x="-16"
     inkscape:window-y="-16"
     inkscape:window-maximized="1"
     inkscape:current-layer="svg54" /><g
     transform="translate(-270 -80)"
     id="g48"><g
       id="g46"><path
         d="M278.522,82.596c-2.664,1.394-4.813,3.621-6.124,6.335c5.599-1.185,9.149-2.571,11.398-3.866    C281.665,83.54,279.828,82.877,278.522,82.596z"
         id="path30" /><path
         d="M287.584,81.248C286.746,81.092,285.884,81,285,81c-1.772,0-3.459,0.343-5.019,0.942c1.329,0.436,2.946,1.202,4.739,2.546    C286.746,83.126,287.385,81.925,287.584,81.248z"
         id="path32" /><path
         d="M290.955,91.166c2.552-1.363,4.258-1.859,5.668-0.746c0.531,0.42,1.368,1.287,2.15,2.141    c-0.472-2.68-1.703-5.09-3.467-7.012c-2.386,0.806-4.539,1.778-6.465,2.866C289.634,89.336,290.338,90.254,290.955,91.166z"
         id="path34" /><path
         d="M287.289,88.175c-0.911-0.977-1.794-1.787-2.641-2.464c-2.457,1.49-6.404,3.056-12.73,4.339    C271.334,91.591,271,93.255,271,95c0,3.021,0.967,5.811,2.594,8.099C275.328,99.563,279.388,92.998,287.289,88.175z"
         id="path36" /><path
         d="M285.531,85.137c0.852,0.702,1.732,1.523,2.638,2.511c1.9-1.087,4.026-2.06,6.364-2.88    c-1.664-1.551-3.703-2.696-5.97-3.293C288.328,82.336,287.615,83.674,285.531,85.137z"
         id="path38" /><path
         d="M290.08,91.664c-0.615-0.906-1.318-1.818-2.114-2.732c-8.177,4.928-12.156,11.768-13.694,15.056    c2.191,2.613,5.322,4.403,8.871,4.876c0.897-2.092,2.255-5.603,2.295-7.811C285.498,97.752,287.111,93.561,290.08,91.664z"
         id="path40" /><path
         d="M296.002,91.205c-0.879-0.693-2.062-0.487-4.502,0.804c2.664,4.258,3.629,8.347,4.256,11.948    C297.78,101.529,299,98.408,299,95c0-0.248-0.024-0.489-0.037-0.734C298.029,93.212,296.699,91.754,296.002,91.205z"
         id="path42" /><path
         d="M286.438,101.072c-0.042,2.286-1.322,5.706-2.246,7.887c0.27,0.016,0.535,0.041,0.809,0.041    c3.868,0,7.369-1.568,9.903-4.104c-0.612-3.695-1.499-7.96-4.278-12.394C287.948,94.199,286.492,98.036,286.438,101.072z"
         id="path44" /></g></g></svg>