<svg xmlns="http://www.w3.org/2000/svg" xmlns:xlink="http://www.w3.org/1999/xlink" xml:space="preserve" style="shape-rendering:geometricPrecision;text-rendering:geometricPrecision;image-rendering:optimizeQuality;" viewBox="0 0 7.05975 5.558674999999999" x="0px" y="0px" fill-rule="evenodd" clip-rule="evenodd"><defs><style type="text/css">
   
    .fil0 {fill:black}
   
  </style></defs><g><path class="fil0" d="M0.509481 2.35933l-9.70439e-005 0c-0.0248432,-0.0117423 -0.0479397,-0.0245521 -0.0689012,-0.0388176 -0.0373619,-0.0252314 -0.0630785,-0.0550239 -0.0804494,-0.0891834 -0.0370708,0.00747238 -0.0793819,0.0296954 -0.0995671,0.0611377 -0.00902508,0.0139743 -0.356733,0.207771 -0.23407,0.259592 0.0857868,0.0361974 0.185354,-0.00689012 0.285212,-0.0549269 -0.105584,0.151194 -0.0544416,0.37653 -0.008831,0.40477 0.0196999,0.141102 0.141393,0.192244 0.261048,0.198164 0.293558,0.0146536 1.8711,0.00300836 3.36034,0.022029 1.0277,0.0131009 2.02443,0.0687071 2.48287,0.044252 0.161869,-0.00863691 0.196805,-0.0571589 0.212332,-0.0714243 0.0827785,-0.0763736 0.164392,-0.283077 0.0844282,-0.474739 -0.00591968,-0.0139743 -0.0125187,-0.0271723 -0.019797,-0.039691 0.097238,0.0271723 0.116065,0.0541505 0.158861,0.0623992 0.077247,0.0148477 0.136153,0.0323156 0.212914,0.0323156 0,-0.035421 0.0241639,-0.171477 -0.0462899,-0.180793 -0.00708421,-0.0465811 -0.231935,-0.0999552 -0.498029,-0.145372 -0.0393028,0.0225142 -0.0859809,0.0403703 -0.138385,0.0544416l-0.0055315 0.00145566 -0.00747238 0.00194088 -0.00601672 0.00145566 -0.00912213 0.00223201 -0.00436698 0.000970439 -0.0104807 0.00232905 -0.00349358 0.000776351 -0.0129068 0.00271723 -0.00145566 0.000291132 -0.00116453 0.000291132c-0.00475515,0.000970439 -0.0095103,0.00184383 -0.0143625,0.00281427l-0.000873395 9.70439e-005 -0.013295 0.0024261 -0.00533742 0.000970439 -0.0105778 0.00174679 -0.00436698 0.000679307 -0.011063 0.00174679 -0.0048522 0.000776351 -0.0129068 0.00184383 -0.00213497 0.000291132 -0.0161093 0.00223201 -0.000291132 0 -0.0139743 0.00174679 -0.00116453 0.000194088 -0.00611377 0.000679307 -0.0121305 0.00135861 -0.00184383 0.000194088 -0.0151389 0.00164975 -0.00232905 0.000194088 -0.0145566 0.00145566 -0.00281427 0.000291132 -0.0168856 0.00145566 -0.000776351 9.70439e-005 -0.0151389 0.00126157 -0.00203792 9.70439e-005 -0.013198 0.000970439 -0.00494924 0.000388176 -0.00436698 0.000291132 -0.0114512 0.000776351 -0.00426993 0.000291132 -0.0156241 0.000873395 -0.0015527 9.70439e-005 -0.0140714 0.000776351 -0.0039788 0.000291132 -0.00184383 9.70439e-005 -0.0158182 0.000679307 -0.000970439 9.70439e-005 -0.00378471 0.000194088 -0.0147507 0.000582263 -0.00145566 9.70439e-005 -0.0151389 0.000582263 -0.00572559 0.000194088 -0.0127128 0.000388176 -0.00329949 9.70439e-005 -0.00611377 0.000194088 -0.0131009 0.000388176 -0.00310541 9.70439e-005 -0.0161093 0.000388176 -0.000194088 0 -0.0163034 0.000291132 -0.00291132 9.70439e-005 -0.0134891 0.000194088 -0.00591968 9.70439e-005 -0.0104807 0.000194088 -0.00902508 9.70439e-005 -0.00747238 9.70439e-005 -0.0121305 9.70439e-005 -0.00436698 0 -0.0152359 0.000194088 -0.00135861 0 -0.0165945 0 -0.00174679 0 -0.0149448 9.70439e-005 -0.00475515 0 -0.019797 0 -0.00873395 0 -0.011063 -9.70439e-005 -0.00572559 0 -0.0140714 0 -0.00262019 -9.70439e-005 -0.0166916 0 -0.000582263 -9.70439e-005 -0.0162063 -9.70439e-005 -0.00359062 0 -0.0131009 -9.70439e-005 -0.00679307 -9.70439e-005 -0.00999552 0 -0.00980144 -9.70439e-005 -0.00689012 -9.70439e-005 -0.0129068 -9.70439e-005 -0.00378471 -9.70439e-005 -0.0160122 -9.70439e-005 -0.000679307 0 -0.0166916 -0.000194088 -0.0024261 0 -0.0141684 -0.000194088 -0.0055315 -9.70439e-005 -0.0111601 -9.70439e-005 -0.00853986 -9.70439e-005 -0.0079576 0 -0.0116453 -0.000194088 -0.00494924 0 -0.0145566 -9.70439e-005 -0.00194088 -9.70439e-005 -0.0164004 -9.70439e-005 -0.00116453 0 -0.0152359 -9.70439e-005 -0.00417289 0 -0.0121305 -9.70439e-005 -0.00718125 -9.70439e-005 -0.00912213 0 -0.0101896 0 -0.00591968 -9.70439e-005 -0.013198 0 -0.00300836 0 -0.0160122 0 -0.00892804 0 -0.00213497 0 -0.00708421 9.70439e-005 -0.00446402 9.70439e-005 -0.00504628 9.70439e-005 -0.00689012 9.70439e-005 -0.00300836 9.70439e-005 -0.00941326 0.000194088 -0.000679307 0 -0.0103837 0.000291132 -0.00184383 9.70439e-005 -0.008831 0.000194088 -0.00446402 0.000194088 -0.00650194 0.000194088 -0.00718125 0.000194088 -0.00407584 0.000194088 -0.0100926 0.000291132 -0.00145566 9.70439e-005 -0.0118394 0.000388176 -0.00126157 9.70439e-005 -0.0107719 0.000388176 -0.00417289 9.70439e-005 -0.00815169 0.000291132 -0.00718125 0.000291132 -0.00543446 0.000194088 -0.0102867 0.000291132 -0.00252314 9.70439e-005 -0.0131009 0.00048522 -0.000582263 0 -0.0127128 0.000388176 -0.00378471 9.70439e-005 -0.00980144 0.000388176 -0.00708421 0.000194088 -0.00679307 0.000194088 -0.0103837 0.000291132 -0.00368767 9.70439e-005 -0.0139743 0.000291132 -0.000291132 0 -0.0145566 0.000388176 -0.00310541 0 -0.0116453 0.000291132 -0.00669603 9.70439e-005 -0.00824873 9.70439e-005 -0.00174679 0 -0.0289191 0.000388176 -0.0156241 9.70439e-005 -0.0135861 9.70439e-005 -0.00320245 0 -0.0125187 0 -0.00252314 0 -0.0100926 -9.70439e-005 -0.00621081 0 -0.00514333 -9.70439e-005 -0.0112571 -9.70439e-005 -0.0166916 -0.000194088 -0.0106748 -0.000194088 -0.00815169 -9.70439e-005 -0.0140714 -0.000388176 -0.00135861 0 -0.0153329 -0.000388176 -0.00533742 -0.000194088 -0.0131009 -0.000388176 -0.00232905 -9.70439e-005c-0.0162063,-0.000582263 -0.0326068,-0.00126157 -0.0492983,-0.00213497l-0.00329949 -0.000194088 -0.0156241 -0.000776351 -0.00262019 -0.000194088c-0.0230965,-0.00126157 -0.0465811,-0.00291132 -0.0704539,-0.00475515l-0.00310541 -0.000291132 -0.0142655 -0.00116453 -0.00776351 -0.000679307 -0.0126157 -0.00116453 -0.00766647 -0.000679307 -0.0133921 -0.00135861 -0.0193117 -0.00194088 -0.0144595 -0.00164975 -0.00630785 -0.000679307 -0.0152359 -0.00184383 -0.00611377 -0.000679307 -0.0136832 -0.00174679 -0.00873395 -0.00116453 -0.0138773 -0.00184383 -0.019894 -0.00271723 -0.0170797 -0.00252314 -0.00349358 -0.000582263 -0.0156241 -0.0024261 -0.00669603 -0.00106748 -0.0149448 -0.0024261 -0.00727829 -0.00126157 -0.0149448 -0.00252314 -0.00368767 -0.000679307c-0.0113541,-0.00203792 -0.0228053,-0.00407584 -0.0342565,-0.00630785l-0.00436698 -0.000776351 -0.0156241 -0.00310541 -0.0064049 -0.00126157 -0.015527 -0.00320245 -0.00776351 -0.00164975 -0.0148477 -0.00320245 -0.00630785 -0.00145566c-0.0123246,-0.00271723 -0.0245521,-0.0055315 -0.0368767,-0.00844282l0 0c-0.102284,-0.024358 -0.207286,-0.0565766 -0.313161,-0.0987907l1.85364 0.0202822c0.312773,0.0145566 0.545096,-0.0676396 0.574209,-0.393513 0.0503658,-0.430099 -0.0361003,-0.821089 -0.382838,-1.13774 -0.550918,-0.432137 -1.21169,-0.799254 -2.53071,-0.776254 -0.687362,-0.0170797 -1.68837,0.109951 -2.35768,0.531995 -0.45009,0.283853 -0.761892,0.689497 -0.683577,1.31824 0.0452225,0.277449 0.220678,0.410205 0.521029,0.404091l2.48015 0.0270753c-0.118394,0.0445432 -0.23572,0.0791878 -0.350329,0.106166l-0.000194088 0c-0.561787,0.132368 -1.05768,0.0793819 -1.29272,0.0791878 -0.425926,-0.000194088 -0.921044,0.0255225 -1.24177,-0.0627874l-0.00465811 -0.00135861 -0.0127128 -0.00359062 -0.00174679 -0.000582263 0 0 -0.00106748 -0.000291132c-0.00494924,-0.00145566 -0.00989848,-0.00300836 -0.0147507,-0.00456106l-0.000873395 -0.000194088 -0.00116453 -0.000388176 0 0c-0.00456106,-0.00145566 -0.00902508,-0.00291132 -0.0133921,-0.00436698l-0.00281427 -0.000970439c-0.00465811,-0.0015527 -0.00921917,-0.00320245 -0.0137802,-0.0048522l-0.00106748 -0.000291132 -0.000194088 -9.70439e-005 -0.000776351 -0.000291132c-0.00465811,-0.00174679 -0.00921917,-0.00339654 -0.0136832,-0.00514333l-0.000970439 -0.000291132 -0.00126157 -0.000582263c-0.00436698,-0.00164975 -0.00873395,-0.00339654 -0.0131009,-0.00514333l-0.000776351 -0.000388176 -0.000194088 -9.70439e-005c-0.00999552,-0.00407584 -0.0196029,-0.00834578 -0.0290161,-0.0127128zm0.516953 -1.3263c-0.0233876,-0.0810317 0.0940356,-0.0592938 0.208644,-0.0385264 -0.0724918,0.0565766 -0.195058,0.0854957 -0.208644,0.0385264zm1.77862 0.135085c0.0364885,-0.0650194 0.0956853,0.0224171 0.153815,0.107428 -0.0806435,-0.0104807 -0.17497,-0.0696775 -0.153815,-0.107428zm0.766065 0.405935c0.0412437,-0.0736563 0.108301,0.0252314 0.174,0.121402 -0.0912213,-0.0118394 -0.197873,-0.0787997 -0.174,-0.121402zm-0.832734 -0.627777c0.0784115,-0.0311511 -0.0107719,-0.110727 -0.097335,-0.188653 -0.000291132,0.0920947 0.0519185,0.206704 0.097335,0.188653zm0.866796 0.228635c0.0501717,0.0417289 -0.0344506,0.0787997 -0.116744,0.115385 0.0218349,-0.0678337 0.0876307,-0.139549 0.116744,-0.115385zm-0.313549 -0.801874c0.0587116,-0.0606524 0.0981114,0.0522096 0.137026,0.161966 -0.0852046,-0.0349358 -0.171088,-0.126933 -0.137026,-0.161966zm-1.75426 0.875627c-0.0384294,-0.0639519 0.0669603,-0.0719095 0.169536,-0.0801583 -0.0492013,0.0648253 -0.147313,0.117326 -0.169536,0.0801583zm-0.653882 0.482988c-0.0434757,-0.0722977 0.0756943,-0.0813228 0.191759,-0.0907361 -0.0556062,0.0733652 -0.166624,0.132756 -0.191759,0.0907361zm5.2263 -0.0425052c-0.0433786,-0.0723948 0.0757913,-0.0814198 0.191856,-0.0907361 -0.0556062,0.0732682 -0.166624,0.132659 -0.191856,0.0907361zm-0.387787 0.00524037c-0.0605554,0.0587116 -0.0965587,-0.0551209 -0.132174,-0.166042 0.08404,0.0373619 0.167304,0.131883 0.132174,0.166042zm-0.74588 0.128292c-0.0172738,-0.0825844 0.0982084,-0.0520155 0.210973,-0.0227083 -0.0766647,0.0509481 -0.200978,0.0705509 -0.210973,0.0227083zm-0.500941 -0.137026c0.0789937,-0.0295984 0.066281,0.0891834 0.0545387,0.205054 -0.0621081,-0.0679307 -0.10044,-0.187877 -0.0545387,-0.205054zm-2.56895 0.0345476c0.0119364,-0.0834578 -0.101411,-0.0456106 -0.211944,-0.00912213 0.0796731,0.0459988 0.205054,0.057547 0.211944,0.00912213zm3.06775 -0.558197c0.0119364,-0.0835548 -0.101314,-0.0456106 -0.211944,-0.00912213 0.0797701,0.0459018 0.205054,0.057547 0.211944,0.00912213zm0.134503 -0.537041c-0.0119364,-0.0835548 0.101411,-0.0456106 0.211944,-0.00912213 -0.0796731,0.0459988 -0.205054,0.057547 -0.211944,0.00912213zm-0.604195 -0.0713273c-0.0822932,0.0184383 -0.0534712,-0.0974321 -0.0258137,-0.210585 0.0521126,0.0758883 0.0735593,0.19991 0.0258137,0.210585zm-2.64959 0.00378471c0.0611377,-0.0228053 0.0513362,0.0689982 0.0422141,0.158667 -0.0480367,-0.0525978 -0.0776351,-0.145372 -0.0422141,-0.158667zm4.50158 2.8395c-1.89993,-0.008831 -3.79975,-0.017662 -5.69958,-0.02659 -0.772955,0.0721036 -0.402053,0.971118 0.446596,1.01023 1.22741,0.0517244 2.48869,0.0865632 3.88651,0.0531801 0.592259,-0.0184383 1.09155,-0.095006 1.45682,-0.255225 0.31122,-0.324515 0.509481,-0.627874 -0.0903479,-0.781592z"/></g><text x="0" y="19.446939999999998" fill="#000000" font-size="5px" font-weight="bold" font-family="'Helvetica Neue', Helvetica, Arial-Unicode, Arial, Sans-serif">Created by Nick Novell</text><text x="0" y="24.446939999999998" fill="#000000" font-size="5px" font-weight="bold" font-family="'Helvetica Neue', Helvetica, Arial-Unicode, Arial, Sans-serif">from the Noun Project</text></svg>