<?xml version="1.0" encoding="UTF-8" standalone="no"?>
<svg
   xmlns:dc="http://purl.org/dc/elements/1.1/"
   xmlns:cc="http://creativecommons.org/ns#"
   xmlns:rdf="http://www.w3.org/1999/02/22-rdf-syntax-ns#"
   xmlns:svg="http://www.w3.org/2000/svg"
   xmlns="http://www.w3.org/2000/svg"
   xmlns:sodipodi="http://sodipodi.sourceforge.net/DTD/sodipodi-0.dtd"
   xmlns:inkscape="http://www.inkscape.org/namespaces/inkscape"
   viewBox="0 0 32 40"
   version="1.1"
   x="0px"
   y="0px"
   id="svg46"
   sodipodi:docname="logo_huile_beurre_acombiner1.svg"
   inkscape:version="0.92.1 r15371">
  <metadata
     id="metadata52">
    <rdf:RDF>
      <cc:Work
         rdf:about="">
        <dc:format>image/svg+xml</dc:format>
        <dc:type
           rdf:resource="http://purl.org/dc/dcmitype/StillImage" />
      </cc:Work>
    </rdf:RDF>
  </metadata>
  <defs
     id="defs50" />
  <sodipodi:namedview
     pagecolor="#ffffff"
     bordercolor="#666666"
     borderopacity="1"
     objecttolerance="10"
     gridtolerance="10"
     guidetolerance="10"
     inkscape:pageopacity="0"
     inkscape:pageshadow="2"
     inkscape:window-width="3200"
     inkscape:window-height="1644"
     id="namedview48"
     showgrid="false"
     inkscape:zoom="11.640745"
     inkscape:cx="3.9655732"
     inkscape:cy="8.2431231"
     inkscape:window-x="-16"
     inkscape:window-y="-16"
     inkscape:window-maximized="1"
     inkscape:current-layer="svg46" />
  <g
     transform="translate(0,-1020.3622)"
     id="g40">
    <g
       transform="matrix(3.7795276,0,0,3.7797929,551.5,-1086.7994)"
       style=""
       fill="#000000"
       id="g38">
      <path
         transform="matrix(0.26458333,0,0,0.26458333,0,224.92317)"
         d="m -537,1258.9102 c -0.27625,0 -0.5,0.2237 -0.5,0.5 l 0,2.1894 c 0,0.1894 0.10802,0.3626 0.27734,0.4473 l 0.44727,0.2246 c 0.16932,0.085 0.27539,0.2579 0.27539,0.4473 l 0,6.1894 -1,0 c -1.10801,0 -1.5,0.8921 -1.5,2 0,5.4738 0,16.5 0,16.5 l 7,0 0,-16.5 c 0,-1.1079 -0.39203,-2 -1.5,-2 -0.32281,-0.034 -1,0 -1,0 0,0 0.0465,-4.2176 0,-6.1894 0,-0.1894 0.10802,-0.3627 0.27734,-0.4473 l 0.44727,-0.2246 c 0.16932,-0.085 0.27539,-0.2579 0.27539,-0.4473 l 0,-2.1894 c 0,-0.2762 -0.22372,-0.5 -0.5,-0.5 z m 3.00195,14.996 a 0.50004997,0.50004997 0 0 1 0.50196,0.5137 l 0,5.9863 a 0.50195905,0.50195905 0 1 1 -1.00391,0 l 0,-5.9863 a 0.50004997,0.50004997 0 0 1 0.44336,-0.5097 0.50004997,0.50004997 0 0 1 0.0586,0 z m -0.008,8.002 a 0.50004997,0.50004997 0 0 1 0.50977,0.5059 l 0,0.4863 a 0.50195905,0.50195905 0 1 1 -1.00391,0 l 0,-0.4863 a 0.50004997,0.50004997 0 0 1 0.44336,-0.502 0.50004997,0.50004997 0 0 1 0.0508,0 z"
         style="opacity:1;fill:#000000;fill-opacity:1;stroke:none;stroke-width:1.00000024;stroke-linecap:round;stroke-linejoin:round;stroke-miterlimit:4;stroke-dasharray:none;stroke-dashoffset:0;stroke-opacity:1"
         id="path36" />
    </g>
  </g>
</svg>
