<?xml version="1.0" encoding="UTF-8" standalone="no"?>
<svg
   xmlns:dc="http://purl.org/dc/elements/1.1/"
   xmlns:cc="http://creativecommons.org/ns#"
   xmlns:rdf="http://www.w3.org/1999/02/22-rdf-syntax-ns#"
   xmlns:svg="http://www.w3.org/2000/svg"
   xmlns="http://www.w3.org/2000/svg"
   xmlns:sodipodi="http://sodipodi.sourceforge.net/DTD/sodipodi-0.dtd"
   xmlns:inkscape="http://www.inkscape.org/namespaces/inkscape"
   version="1.1"
   x="0px"
   y="0px"
   viewBox="0 0 100 125"
   enable-background="new 0 0 100 100"
   xml:space="preserve"
   id="svg94"
   sodipodi:docname="logo_veggie_2.svg"
   inkscape:version="0.92.1 r15371"><metadata
     id="metadata100"><rdf:RDF><cc:Work
         rdf:about=""><dc:format>image/svg+xml</dc:format><dc:type
           rdf:resource="http://purl.org/dc/dcmitype/StillImage" /></cc:Work></rdf:RDF></metadata><defs
     id="defs98" /><sodipodi:namedview
     pagecolor="#ffffff"
     bordercolor="#666666"
     borderopacity="1"
     objecttolerance="10"
     gridtolerance="10"
     guidetolerance="10"
     inkscape:pageopacity="0"
     inkscape:pageshadow="2"
     inkscape:window-width="3200"
     inkscape:window-height="1644"
     id="namedview96"
     showgrid="false"
     inkscape:zoom="10.536"
     inkscape:cx="50"
     inkscape:cy="62.5"
     inkscape:window-x="-16"
     inkscape:window-y="-16"
     inkscape:window-maximized="1"
     inkscape:current-layer="svg94" /><g
     id="g88"><path
       fill="none"
       d="M48.403,19.801c0.002-0.033,0.001-0.07,0.004-0.102c-0.026,0.015-0.053,0.024-0.08,0.039   C48.353,19.758,48.378,19.779,48.403,19.801z"
       id="path84" /><path
       fill="#000000"
       d="M89.037,51.443C88.12,39.386,82.513,30.189,74.039,26.84c-5.451-2.155-17.612-1.48-22.407-1.109   c-0.339-1.645-0.759-3.509-1.081-4.374c-0.112-0.3-0.168-0.597-0.192-0.876c0.61-0.028,1.542,0.005,2.641,0.317   c0.328,0.093,0.864,0.273,1.566,0.508c3.71,1.241,11.955,3.999,18.855,3.999c0.675,0,1.339-0.027,1.984-0.084   c8.456-0.748,12.13-3.433,12.282-3.547c0.019-0.014,0.033-0.033,0.051-0.049c0.027-0.024,0.054-0.048,0.079-0.075   c0.036-0.038,0.066-0.08,0.095-0.123c0.012-0.017,0.027-0.031,0.038-0.049c0.004-0.007,0.003-0.014,0.007-0.021   c0.055-0.1,0.091-0.207,0.108-0.321c0.003-0.022,0.004-0.044,0.006-0.066c0.003-0.037,0.011-0.072,0.01-0.109   c-0.1-3.286-2.685-7.297-6.916-10.728c-3.638-2.951-9.161-5.811-13.738-4.991c-7.752,1.388-12.94,8.189-14.894,10.75l-0.069,0.091   c-0.986,1.293-1.897,1.61-2.366,1.686c-0.209-0.16-0.513-0.333-0.927-0.37c-0.349-0.032-0.891,0.031-1.457,0.512   c-0.414,0.352-1.357,0.662-1.853,0.775c-0.114,0.026-0.223,0.072-0.319,0.136c-0.367,0.239-0.868,0.567-0.935,1.171   c-0.06,0.554,0.287,0.91,0.474,1.102c0.131,0.134,0.266,0.273,0.42,0.559c0.863,1.453,1.438,2.887,1.821,4.105   c-5.603-0.392-16.307-0.813-21.36,1.184c-8.474,3.35-14.081,12.548-14.998,24.603c-1.295,17.019,6.699,28.236,11.58,33.407   c7.655,8.111,16.268,9.546,17.226,9.683c1.891,0.269,9.759,0.456,10.132,0.463l0.238-0.004c0.334-0.008,8.203-0.194,10.093-0.464   c0.956-0.137,9.566-1.568,17.226-9.682C82.337,79.678,90.331,68.463,89.037,51.443z M48.403,19.801   c-0.025-0.021-0.051-0.043-0.076-0.064c0.026-0.014,0.054-0.024,0.08-0.039C48.404,19.73,48.405,19.767,48.403,19.801z"
       id="path86" /></g></svg>