<?xml version="1.0" encoding="UTF-8" standalone="no"?>
<svg
   xmlns:dc="http://purl.org/dc/elements/1.1/"
   xmlns:cc="http://creativecommons.org/ns#"
   xmlns:rdf="http://www.w3.org/1999/02/22-rdf-syntax-ns#"
   xmlns:svg="http://www.w3.org/2000/svg"
   xmlns="http://www.w3.org/2000/svg"
   xmlns:sodipodi="http://sodipodi.sourceforge.net/DTD/sodipodi-0.dtd"
   xmlns:inkscape="http://www.inkscape.org/namespaces/inkscape"
   version="1.1"
   x="0px"
   y="0px"
   viewBox="0 0 120.668 297.73"
   style="enable-background:new 0 0 120.668 238.184;"
   xml:space="preserve"
   id="svg40"
   sodipodi:docname="logo_obesity.svg"
   inkscape:version="0.92.1 r15371"><metadata
     id="metadata46"><rdf:RDF><cc:Work
         rdf:about=""><dc:format>image/svg+xml</dc:format><dc:type
           rdf:resource="http://purl.org/dc/dcmitype/StillImage" /></cc:Work></rdf:RDF></metadata><defs
     id="defs44" /><sodipodi:namedview
     pagecolor="#ffffff"
     bordercolor="#666666"
     borderopacity="1"
     objecttolerance="10"
     gridtolerance="10"
     guidetolerance="10"
     inkscape:pageopacity="0"
     inkscape:pageshadow="2"
     inkscape:window-width="3200"
     inkscape:window-height="1644"
     id="namedview42"
     showgrid="false"
     inkscape:zoom="2.2419937"
     inkscape:cx="83.592826"
     inkscape:cy="77.573292"
     inkscape:window-x="-16"
     inkscape:window-y="-16"
     inkscape:window-maximized="1"
     inkscape:current-layer="svg40" /><g
     id="g34"><path
       d="M8.665,153.063c0.114,0.004,0.228,0.006,0.341,0.006c4.815,0,8.807-3.811,8.988-8.665c0.109-3.015,0.253-5.899,0.424-8.684   c-3.208-5.085-5.085-11.687-5.085-20.223c0-13.497,5.081-25.213,14.304-34.002c0.34-0.324,0.746-0.634,1.2-0.934   c-8.207,7.913-13.504,19.218-13.504,32.936c0,11.778,3.911,21.986,10.209,29.833c-1.61-1.189-3.098-2.53-4.44-4.046l12.237,88.891   c0,5.527,5.537,10.008,12.363,10.008c6.828,0,12.365-4.48,12.365-10.008v-68.059c0.753,0.039,1.508,0.061,2.266,0.061   c0.758,0,1.513-0.021,2.266-0.061v68.059c0,5.527,5.537,10.008,12.365,10.008c6.826,0,12.363-4.48,12.363-10.008l12.237-88.891   c-1.342,1.516-2.831,2.858-4.441,4.047c6.298-7.847,10.21-18.056,10.21-29.834c0-13.717-5.297-25.022-13.503-32.935   c0.453,0.299,0.859,0.608,1.199,0.933c9.224,8.791,14.305,20.505,14.305,34.002c0,8.539-1.878,15.143-5.088,20.229   c0.171,2.782,0.315,5.669,0.426,8.678c0.181,4.853,4.173,8.666,8.989,8.666c0.113,0,0.227-0.002,0.341-0.006   c4.968-0.185,8.844-4.362,8.659-9.33c-1.544-40.162-8.149-62.391-16.423-75.613c-4.142-6.58-8.85-10.842-13.366-13.313   c-4.505-2.485-8.661-3.093-11.322-3.083c-0.029,0-0.052,0.002-0.081,0.003c-0.191-0.014-0.383-0.029-0.578-0.029H60.334H41.776   c-0.199,0-0.395,0.015-0.59,0.03c-0.025,0-0.045-0.002-0.071-0.002c-2.66-0.012-6.816,0.597-11.323,3.081   c-6.825,3.731-13.852,11.379-19.208,25.055c-5.392,13.734-9.442,33.734-10.579,63.871C-0.179,148.702,3.697,152.878,8.665,153.063z   "
       id="path30" /><circle
       cx="60.334"
       cy="22.5"
       r="22.5"
       id="circle32" /></g></svg>