<?xml version="1.0" encoding="UTF-8" standalone="no"?>
<svg
   xmlns:dc="http://purl.org/dc/elements/1.1/"
   xmlns:cc="http://creativecommons.org/ns#"
   xmlns:rdf="http://www.w3.org/1999/02/22-rdf-syntax-ns#"
   xmlns:svg="http://www.w3.org/2000/svg"
   xmlns="http://www.w3.org/2000/svg"
   xmlns:sodipodi="http://sodipodi.sourceforge.net/DTD/sodipodi-0.dtd"
   xmlns:inkscape="http://www.inkscape.org/namespaces/inkscape"
   version="1.1"
   x="0px"
   y="0px"
   viewBox="0 0 176.5 206.25"
   enable-background="new 0 0 176.5 165"
   xml:space="preserve"
   id="svg22"
   sodipodi:docname="logo_olive.svg"
   inkscape:version="0.92.1 r15371"><metadata
     id="metadata28"><rdf:RDF><cc:Work
         rdf:about=""><dc:format>image/svg+xml</dc:format><dc:type
           rdf:resource="http://purl.org/dc/dcmitype/StillImage" /></cc:Work></rdf:RDF></metadata><defs
     id="defs26" /><sodipodi:namedview
     pagecolor="#ffffff"
     bordercolor="#666666"
     borderopacity="1"
     objecttolerance="10"
     gridtolerance="10"
     guidetolerance="10"
     inkscape:pageopacity="0"
     inkscape:pageshadow="2"
     inkscape:window-width="3200"
     inkscape:window-height="1644"
     id="namedview24"
     showgrid="false"
     inkscape:zoom="6.3854545"
     inkscape:cx="88.25"
     inkscape:cy="146.97466"
     inkscape:window-x="-16"
     inkscape:window-y="-16"
     inkscape:window-maximized="1"
     inkscape:current-layer="g16" /><g
     display="none"
     id="g12"><path
       display="inline"
       d="M89.754,7.495L85.5,10.604c0,0,9.044,13.562,10.25,24.896c1.25,11.75-0.25,16-0.25,16   s-16.099-7.989-25.125-9.668C54.469,38.872,35.5,41.75,35.5,41.75s12,11,28.347,13.931c8.224,1.475,30.052,0,30.052,0   s0.672,0.675-1.149,6.069c-1.172,3.471-4.032,7.921-4.032,7.921S83.145,63.322,79,61.25s-11.75-3-15,1.25   c-4.341,5.677,1.399,14.185,6.625,15.972c5.964,2.039,14.767,1.043,14.875-0.511s2.182,2.072-4.036,6.736s-6.218,4.664-6.218,4.664   S66.218,81.235,60,78.127s-18.433-2.756-18.433-2.756S50.429,84.925,55,87.287C60.25,90,74,90.75,74,90.75S73.321,95.5,68.786,98   s-4.536,2.5-4.536,2.5s-4-8.25-8.5-10.5s-13.095-3.997-15.5,1.25c-2.75,6,2.75,11,7.75,13.25c0,0,11.75,0.5,13.25-0.5s0-0.5-4,3   s-13.005,7.75-20,14.25s-10.008,27.509-10.008,27.509S38,143.25,44.75,135s12-22.5,12-22.5s4.5-6,9.25-8.5s7.5-6,7.5-6l0.75,3.5   c0,0-4.881,2.168-8.25,6.5c-5.25,6.75-2.051,14.458,2.786,15.5c6.964,1.5,11.464-2.25,11.964-10C81.362,104.006,76,101,76,101   l-1.25-4.25L81.5,90c0,0-0.25,9.5,4,18.25s15.25,19,15.25,19s-0.988-18.453-2.25-23.5c-1.25-5-13-16.463-13-16.463L92.75,73   L96,61.25l0,0c0,0-2.213,11.889-0.5,16.877c1.614,4.7,8.378,9.754,15.987,5.453c5.75-3.25,5.078-11.95-0.237-18.08   c-5.241-6.044-13.5-5.75-13.5-5.75s2.5-7.75,2.5-9.75s0.913-2.624,0.913-2.624S109.255,61.424,122.75,71   c13.655,9.689,26.75,13.5,26.75,13.5s-10.898-19.667-20.297-27.604C117.953,47.396,102,41.25,102,41.25s0.513-2.308-2.25-14.25   C97.604,17.723,91.637,9.38,89.754,7.495z"
       id="path10" /></g><g
     id="g16"><path
       d="m 90.86725,7.495 -5.992282,4.001683 c 0,0 12.739575,17.456038 14.438378,32.044354 1.760774,15.123761 -0.352157,20.594057 -0.352157,20.594057 0,0 -22.677407,-10.28287 -35.391627,-12.443959 -22.405539,-3.8099 -49.125687,-0.105547 -49.125687,-0.105547 0,0 16.903463,14.158415 39.930203,17.930989 11.584507,1.898514 42.331907,0 42.331907,0 0,0 0.946594,0.868811 -1.618513,7.811583 -1.650897,4.467623 -5.679565,10.195345 -5.679565,10.195345 0,0 -7.850244,-8.171979 -13.688982,-10.838909 -5.838737,-2.666931 -16.551306,-3.861386 -21.129328,1.60891 -6.114827,7.30703 1.970663,18.257919 9.33212,20.558019 8.401021,2.624455 19.544628,0.08495 22.361872,-2.753169 1.474831,-1.485346 -0.469072,6.864254 -7.09382,10.765544 -9.202526,5.4201 -8.758811,6.00317 -8.758811,6.00317 0,0 -12.717037,-10.45921 -21.475847,-14.459605 C 40.1963,94.40707 22.989983,94.860139 22.989983,94.860139 c 0,0 12.483208,12.297231 18.922018,15.337421 7.395264,3.49198 26.763815,4.45733 26.763815,4.45733 0,0 -0.956454,6.11387 -7.344554,9.33168 -6.3881,3.21783 -6.389509,3.21783 -6.389509,3.21783 0,0 -5.634488,-10.61881 -11.973286,-13.51486 -6.338798,-2.89604 -18.445902,-5.14465 -21.833639,1.60891 -3.87371,7.72277 6.220475,15.55239 10.21251,16.62456 3.992033,1.07218 17.255617,1.07347 19.368549,-0.21367 2.112934,-1.28712 0,-0.64356 -5.634487,3.8614 -5.634488,4.50495 -18.319127,9.97524 -28.172436,18.34157 -9.8533105,8.36634 -14.0974881,35.40762 -14.0974881,35.40762 0,0 15.1539531,-7.09078 24.6621511,-17.70959 9.508198,-10.61882 16.903462,-28.9604 16.903462,-28.9604 0,0 6.338798,-7.72277 13.029752,-10.9406 6.690954,-3.21782 10.564664,-7.72277 10.564664,-7.72277 l 1.056466,4.50495 c 0,0 -6.875483,2.7905 -11.62113,8.36634 -7.395265,8.68812 -2.889083,18.60931 3.924421,19.9505 9.809642,1.93069 16.148441,-2.89605 16.852751,-12.87129 0.862077,-12.22 -6.690954,-16.08911 -6.690954,-16.08911 l -1.760776,-5.47029 9.508197,-8.68813 c 0,0 -0.352156,12.22773 5.634488,23.4901 5.986642,11.26238 21.481482,24.45544 21.481482,24.45544 0,0 -1.39172,-23.75138 -3.1694,-30.24751 -1.76077,-6.43565 -18.312082,-21.19001 -18.312082,-21.19001 l 10.212504,-18.389203 4.57802,-15.123761 v 0 c 0,0 -3.117278,15.302671 -0.704303,21.722869 2.273511,6.049505 11.801421,12.554655 22.519631,7.018715 8.09958,-4.18317 7.15299,-15.381189 -0.33384,-23.271288 -7.38258,-7.779405 -19.0164,-7.400989 -19.0164,-7.400989 0,0 3.52156,-9.975246 3.52156,-12.549504 0,-2.574257 1.28607,-3.377426 1.28607,-3.377426 0,0 11.39857,18.081583 30.40792,30.407127 19.23474,12.47099 37.68064,17.37624 37.68064,17.37624 0,0 -15.35116,-25.313962 -28.5908,-35.529902 -15.847,-12.227722 -38.31874,-20.138414 -38.31874,-20.138414 0,0 0.72262,-2.970693 -3.1694,-18.341583 C 101.92493,20.659751 93.519674,9.9212374 90.86725,7.495 Z"
       id="path14"
       inkscape:connector-curvature="0"
       style="stroke-width:1.34650564" /></g></svg>