<svg xmlns="http://www.w3.org/2000/svg" xmlns:xlink="http://www.w3.org/1999/xlink" version="1.1" x="0px" y="0px" viewBox="0 0 100 125" enable-background="new 0 0 100 100" xml:space="preserve"><path d="M61.7,17.179c0,0,6.553-8.463,14.649-8.794C87,8,88.968,1.18,88.968,1.18l6.507,3.579c0,0-4.963,4.55,0.394,14.362  c5.358,9.812-2.32,18.486-2.32,18.486s-8.071-5.687-6.021-13.296c0,0-1.098,6.488-13.476,8.834  c-2.782-8.533,1.81-15.042,1.81-15.042S69.552,21.705,61.7,17.179z M85.639,30.578c-2.254,1.839-5.758,3.656-11.185,4.686  c-1.063,0.202-2.116-0.418-2.451-1.449c-1.614-4.952-1.021-9.284-0.058-12.332c-2.43,0.308-5.707,0.164-9.355-1.449  c-0.753,0.564-1.502,1.204-2.244,1.932c-8.324,8.16-10.9,11.939-20.685,18.183c-7.325,4.673-6.809,4.582-26.983,13.893  c-23.806,13.29-4.163,35.892-4.163,35.892c10.88,11.1,26.764,8.09,26.764,8.09s16.286-0.896,31.218-14.697  c13.243-12.24,19.752-32.689,24.088-45.388C88.989,36.45,86.715,33.887,85.639,30.578z M65.225,28.185  c-0.818,1.044-20.376,25.653-48.675,33.738c-0.184,0.054-0.369,0.078-0.55,0.078c-0.871,0-1.671-0.573-1.922-1.451  c-0.304-1.062,0.312-2.169,1.374-2.473c27.024-7.722,46.434-32.116,46.626-32.362c0.682-0.87,1.938-1.02,2.808-0.338  S65.904,27.316,65.225,28.185z"/><text x="0" y="115" fill="#000000" font-size="5px" font-weight="bold" font-family="'Helvetica Neue', Helvetica, Arial-Unicode, Arial, Sans-serif">Created by Mario Bieh</text><text x="0" y="120" fill="#000000" font-size="5px" font-weight="bold" font-family="'Helvetica Neue', Helvetica, Arial-Unicode, Arial, Sans-serif">from the Noun Project</text></svg>