<?xml version="1.0" encoding="UTF-8" standalone="no"?>
<svg
   xmlns:dc="http://purl.org/dc/elements/1.1/"
   xmlns:cc="http://creativecommons.org/ns#"
   xmlns:rdf="http://www.w3.org/1999/02/22-rdf-syntax-ns#"
   xmlns:svg="http://www.w3.org/2000/svg"
   xmlns="http://www.w3.org/2000/svg"
   xmlns:sodipodi="http://sodipodi.sourceforge.net/DTD/sodipodi-0.dtd"
   xmlns:inkscape="http://www.inkscape.org/namespaces/inkscape"
   version="1.1"
   x="0px"
   y="0px"
   viewBox="0 0 100 125"
   enable-background="new 0 0 100 100"
   xml:space="preserve"
   id="svg20"
   sodipodi:docname="logo_cafe.svg"
   inkscape:version="0.92.1 r15371"><metadata
     id="metadata26"><rdf:RDF><cc:Work
         rdf:about=""><dc:format>image/svg+xml</dc:format><dc:type
           rdf:resource="http://purl.org/dc/dcmitype/StillImage" /></cc:Work></rdf:RDF></metadata><defs
     id="defs24" /><sodipodi:namedview
     pagecolor="#ffffff"
     bordercolor="#666666"
     borderopacity="1"
     objecttolerance="10"
     gridtolerance="10"
     guidetolerance="10"
     inkscape:pageopacity="0"
     inkscape:pageshadow="2"
     inkscape:window-width="3200"
     inkscape:window-height="1644"
     id="namedview22"
     showgrid="false"
     inkscape:zoom="1.888"
     inkscape:cx="50"
     inkscape:cy="62.5"
     inkscape:window-x="-16"
     inkscape:window-y="-16"
     inkscape:window-maximized="1"
     inkscape:current-layer="svg20" /><g
     id="g14"><g
       id="g6"><path
         fill="#000000"
         d="M32.89,58.066c-11.73-14.663-13.008-26.65-12.857-32.014c11.215-2.646,24.773,8.613,30.907,26.086    c5.374,15.305,3.334,30.474-4.247,37.326C46.155,82.427,43.362,71.154,32.89,58.066z"
         id="path2" /><path
         fill="#000000"
         d="M9.417,66.719c-5.746-16.365-3.015-32.572,5.904-38.625c0.244,6.865,2.627,18.844,13.887,32.918    c11.234,14.041,12.881,25.619,12.868,31.289c-0.104,0.039-0.206,0.086-0.312,0.124C30.298,96.451,15.815,84.941,9.417,66.719z"
         id="path4" /></g><g
       id="g12"><path
         fill="#000000"
         d="M77.083,34.822c0.766-15.396,6.6-23.51,9.555-26.666c8.068,4.729,10.129,18.909,4.449,32.859    c-4.947,12.152-14.22,20.318-22.529,20.738C72.085,56.988,76.408,48.467,77.083,34.822z"
         id="path8" /><path
         fill="#000000"
         d="M81.727,6.596c-3.642,4.507-8.621,13.264-9.353,27.994c-0.737,14.878-6.104,22.877-9.149,26.261    c-9.187-3.877-11.798-18.84-5.81-33.544C62.72,14.277,72.995,5.822,81.727,6.596z"
         id="path10" /></g></g></svg>