<?xml version="1.0" encoding="UTF-8" standalone="no"?>
<svg
   xmlns:dc="http://purl.org/dc/elements/1.1/"
   xmlns:cc="http://creativecommons.org/ns#"
   xmlns:rdf="http://www.w3.org/1999/02/22-rdf-syntax-ns#"
   xmlns:svg="http://www.w3.org/2000/svg"
   xmlns="http://www.w3.org/2000/svg"
   id="svg8"
   version="1.1"
   viewBox="0 0 210 297"
   height="297mm"
   width="210mm">
  <defs
     id="defs2">
    <style
       id="style32">.cls-1{fill:none;}.cls-1,.cls-2{stroke:#000;stroke-miterlimit:10;stroke-width:4px;}</style>
    <style
       id="style74">.cls-1{fill:none;}.cls-1,.cls-2{stroke:#000;stroke-miterlimit:10;stroke-width:4px;}</style>
    <style
       id="style2">.cls-1{fill:none;}.cls-1,.cls-2{stroke:#000;stroke-miterlimit:10;stroke-width:4px;}</style>
  </defs>
  <metadata
     id="metadata5">
    <rdf:RDF>
      <cc:Work
         rdf:about="">
        <dc:format>image/svg+xml</dc:format>
        <dc:type
           rdf:resource="http://purl.org/dc/dcmitype/StillImage" />
        <dc:title></dc:title>
      </cc:Work>
    </rdf:RDF>
  </metadata>
  <g
     id="layer1">
    <g
       transform="matrix(0.36545434,0,0,0.3536853,131.82741,95.352484)"
       id="g30">
      <g
         style="display:none"
         display="none"
         id="g12">
        <path
           style="display:inline"
           display="inline"
           d="M 89.754,7.495 85.5,10.604 c 0,0 9.044,13.562 10.25,24.896 1.25,11.75 -0.25,16 -0.25,16 0,0 -16.099,-7.989 -25.125,-9.668 C 54.469,38.872 35.5,41.75 35.5,41.75 c 0,0 12,11 28.347,13.931 8.224,1.475 30.052,0 30.052,0 0,0 0.672,0.675 -1.149,6.069 -1.172,3.471 -4.032,7.921 -4.032,7.921 0,0 -5.573,-6.349 -9.718,-8.421 -4.145,-2.072 -11.75,-3 -15,1.25 -4.341,5.677 1.399,14.185 6.625,15.972 5.964,2.039 14.767,1.043 14.875,-0.511 0.108,-1.554 2.182,2.072 -4.036,6.736 -6.218,4.664 -6.218,4.664 -6.218,4.664 0,0 -9.028,-8.126 -15.246,-11.234 -6.218,-3.108 -18.433,-2.756 -18.433,-2.756 0,0 8.862,9.554 13.433,11.916 5.25,2.713 19,3.463 19,3.463 0,0 -0.679,4.75 -5.214,7.25 -4.535,2.5 -4.536,2.5 -4.536,2.5 0,0 -4,-8.25 -8.5,-10.5 -4.5,-2.25 -13.095,-3.997 -15.5,1.25 -2.75,6 2.75,11 7.75,13.25 0,0 11.75,0.5 13.25,-0.5 1.5,-1 0,-0.5 -4,3 -4,3.5 -13.005,7.75 -20,14.25 -6.995,6.5 -10.008,27.509 -10.008,27.509 0,0 10.758,-5.509 17.508,-13.759 6.75,-8.25 12,-22.5 12,-22.5 0,0 4.5,-6 9.25,-8.5 4.75,-2.5 7.5,-6 7.5,-6 l 0.75,3.5 c 0,0 -4.881,2.168 -8.25,6.5 -5.25,6.75 -2.051,14.458 2.786,15.5 6.964,1.5 11.464,-2.25 11.964,-10 C 81.362,104.006 76,101 76,101 L 74.75,96.75 81.5,90 c 0,0 -0.25,9.5 4,18.25 4.25,8.75 15.25,19 15.25,19 0,0 -0.988,-18.453 -2.25,-23.5 -1.25,-5 -13,-16.463 -13,-16.463 L 92.75,73 96,61.25 v 0 c 0,0 -2.213,11.889 -0.5,16.877 1.614,4.7 8.378,9.754 15.987,5.453 5.75,-3.25 5.078,-11.95 -0.237,-18.08 -5.241,-6.044 -13.5,-5.75 -13.5,-5.75 0,0 2.5,-7.75 2.5,-9.75 0,-2 0.913,-2.624 0.913,-2.624 0,0 8.092,14.048 21.587,23.624 13.655,9.689 26.75,13.5 26.75,13.5 0,0 -10.898,-19.667 -20.297,-27.604 C 117.953,47.396 102,41.25 102,41.25 102,41.25 102.513,38.942 99.75,27 97.604,17.723 91.637,9.38 89.754,7.495 Z"
           id="path10" />
      </g>
      <g
         id="g16">
        <path
           d="m 90.86725,7.495 -5.992282,4.001683 c 0,0 12.739575,17.456038 14.438378,32.044354 1.760774,15.123761 -0.352157,20.594057 -0.352157,20.594057 0,0 -22.677407,-10.28287 -35.391627,-12.443959 -22.405539,-3.8099 -49.125687,-0.105547 -49.125687,-0.105547 0,0 16.903463,14.158415 39.930203,17.930989 11.584507,1.898514 42.331907,0 42.331907,0 0,0 0.946594,0.868811 -1.618513,7.811583 -1.650897,4.467623 -5.679565,10.195345 -5.679565,10.195345 0,0 -7.850244,-8.171979 -13.688982,-10.838909 -5.838737,-2.666931 -16.551306,-3.861386 -21.129328,1.60891 -6.114827,7.30703 1.970663,18.257919 9.33212,20.558019 8.401021,2.624455 19.544628,0.08495 22.361872,-2.753169 1.474831,-1.485346 -0.469072,6.864254 -7.09382,10.765544 -9.202526,5.4201 -8.758811,6.00317 -8.758811,6.00317 0,0 -12.717037,-10.45921 -21.475847,-14.459605 C 40.1963,94.40707 22.989983,94.860139 22.989983,94.860139 c 0,0 12.483208,12.297231 18.922018,15.337421 7.395264,3.49198 26.763815,4.45733 26.763815,4.45733 0,0 -0.956454,6.11387 -7.344554,9.33168 -6.3881,3.21783 -6.389509,3.21783 -6.389509,3.21783 0,0 -5.634488,-10.61881 -11.973286,-13.51486 -6.338798,-2.89604 -18.445902,-5.14465 -21.833639,1.60891 -3.87371,7.72277 6.220475,15.55239 10.21251,16.62456 3.992033,1.07218 17.255617,1.07347 19.368549,-0.21367 2.112934,-1.28712 0,-0.64356 -5.634487,3.8614 -5.634488,4.50495 -18.319127,9.97524 -28.172436,18.34157 -9.8533105,8.36634 -14.0974881,35.40762 -14.0974881,35.40762 0,0 15.1539531,-7.09078 24.6621511,-17.70959 9.508198,-10.61882 16.903462,-28.9604 16.903462,-28.9604 0,0 6.338798,-7.72277 13.029752,-10.9406 6.690954,-3.21782 10.564664,-7.72277 10.564664,-7.72277 l 1.056466,4.50495 c 0,0 -6.875483,2.7905 -11.62113,8.36634 -7.395265,8.68812 -2.889083,18.60931 3.924421,19.9505 9.809642,1.93069 16.148441,-2.89605 16.852751,-12.87129 0.862077,-12.22 -6.690954,-16.08911 -6.690954,-16.08911 l -1.760776,-5.47029 9.508197,-8.68813 c 0,0 -0.352156,12.22773 5.634488,23.4901 5.986642,11.26238 21.481482,24.45544 21.481482,24.45544 0,0 -1.39172,-23.75138 -3.1694,-30.24751 -1.76077,-6.43565 -18.312082,-21.19001 -18.312082,-21.19001 l 10.212504,-18.389203 4.57802,-15.123761 v 0 c 0,0 -3.117278,15.302671 -0.704303,21.722869 2.273511,6.049505 11.801421,12.554655 22.519631,7.018715 8.09958,-4.18317 7.15299,-15.381189 -0.33384,-23.271288 -7.38258,-7.779405 -19.0164,-7.400989 -19.0164,-7.400989 0,0 3.52156,-9.975246 3.52156,-12.549504 0,-2.574257 1.28607,-3.377426 1.28607,-3.377426 0,0 11.39857,18.081583 30.40792,30.407127 19.23474,12.47099 37.68064,17.37624 37.68064,17.37624 0,0 -15.35116,-25.313962 -28.5908,-35.529902 -15.847,-12.227722 -38.31874,-20.138414 -38.31874,-20.138414 0,0 0.72262,-2.970693 -3.1694,-18.341583 C 101.92493,20.659751 93.519674,9.9212374 90.86725,7.495 Z"
           id="path14"
           style="stroke-width:1.34650564" />
      </g>
    </g>
    <g
       transform="matrix(0.54717085,0,0,0.5674713,6.0115994,98.028079)"
       id="g137">
      <path
         style="fill:none;stroke:#000000;stroke-width:4px;stroke-miterlimit:10"
         class="cls-1"
         d="M 61.81,97.72 A 38.89,38.89 0 0 0 75,69 C 75,41.38 51.62,18 24,18 h 51 c 27.62,0 51,23.38 51,51 0,22.1 -19.9,40 -42,40"
         id="path8" />
      <path
         style="fill:none;stroke:#000000;stroke-width:4px;stroke-miterlimit:10"
         class="cls-1"
         d="M 34,109 C 16.32,109 3,94.68 3,77 3,62.86 13.86,51 28,51 h 51 c -14.14,0 -25,11.86 -25,26 0,17.68 13.32,32 31,32 z"
         id="path10-8" />
      <path
         style="stroke:#000000;stroke-width:4px;stroke-miterlimit:10"
         class="cls-2"
         d="M 55.46,72 H 99 A 21.38,21.38 0 0 0 78.67,51 C 66.86,51.66 57.59,60.6 55.46,72 Z"
         id="path12" />
      <path
         style="fill:none;stroke:#000000;stroke-width:4px;stroke-miterlimit:10"
         class="cls-1"
         d="m 58.5,51 c -14.14,0 -25,11.86 -25,26 0,17.68 13.32,32 31,32"
         id="path14-0" />
      <path
         style="fill:none;stroke:#000000;stroke-width:4px;stroke-miterlimit:10"
         class="cls-1"
         d="m 48.5,51 c -14.14,0 -25,11.86 -25,26 0,17.68 13.32,32 31,32"
         id="path16" />
      <path
         style="fill:none;stroke:#000000;stroke-width:4px;stroke-miterlimit:10"
         class="cls-1"
         d="m 68.5,51 c -14.14,0 -25,11.86 -25,26 0,17.68 13.32,32 31,32"
         id="path18" />
      <path
         style="fill:none;stroke:#000000;stroke-width:4px;stroke-miterlimit:10"
         class="cls-1"
         d="m 38.5,51 c -14.14,0 -25,11.86 -25,26 0,17.68 13.32,32 31,32"
         id="path20" />
    </g>
    <g
       transform="matrix(0.26458333,0,0,0.26458333,63.420624,92.397709)"
       id="g147">
      <path
         d="m 66.4,50.6 c 1.8,-0.5 4.1,-1.2 7,-2.1 C 97,40.9 94.1,11.6 94.1,11.6 H 81.7 75.8 V 7.9 H 24.2 v 3.7 H 18.3 5.9 c 0,0 -3,29.4 20.6,36.8 2.9,0.9 5.2,1.6 7,2.1 3.6,4.3 8,7.4 12.8,8.5 h 7.4 c 4.8,-1 9.2,-4.1 12.7,-8.4 m 9.4,-26.8 v -8.5 h 5.9 8.8 c -0.1,7.3 -2,24.5 -18.2,29.7 -0.9,0.3 -1.8,0.6 -2.5,0.8 3.7,-6.4 6,-14.3 6,-22 z M 27.6,44.9 C 11.4,39.8 9.5,22.6 9.4,15.3 h 8.8 5.9 v 8.5 c 0,7.7 2.2,15.6 6,21.9 -0.7,-0.2 -1.6,-0.5 -2.5,-0.8 m 22.4,-4.4 -11.4,7.9 4,-13.3 -11.1,-8.4 13.9,-0.3 4.6,-13 4.6,13.1 13.9,0.3 -11.1,8.4 4,13.3 z"
         id="path2" />
      <path
         d="M 46.3,63.3 V 81 C 33.8,81.8 24.2,86.4 24.2,91.9 H 75.8 C 75.8,86.3 66.2,81.7 53.7,81 V 63.3 Z"
         id="path4" />
    </g>
    <g
       transform="matrix(0.26458333,0,0,0.26458333,182.56255,93.138542)"
       id="g157">
      <path
         d="m 66.4,50.6 c 1.8,-0.5 4.1,-1.2 7,-2.1 C 97,40.9 94.1,11.6 94.1,11.6 H 81.7 75.8 V 7.9 H 24.2 v 3.7 H 18.3 5.9 c 0,0 -3,29.4 20.6,36.8 2.9,0.9 5.2,1.6 7,2.1 3.6,4.3 8,7.4 12.8,8.5 h 7.4 c 4.8,-1 9.2,-4.1 12.7,-8.4 m 9.4,-26.8 v -8.5 h 5.9 8.8 c -0.1,7.3 -2,24.5 -18.2,29.7 -0.9,0.3 -1.8,0.6 -2.5,0.8 3.7,-6.4 6,-14.3 6,-22 z M 27.6,44.9 C 11.4,39.8 9.5,22.6 9.4,15.3 h 8.8 5.9 v 8.5 c 0,7.7 2.2,15.6 6,21.9 -0.7,-0.2 -1.6,-0.5 -2.5,-0.8 m 22.4,-4.4 -11.4,7.9 4,-13.3 -11.1,-8.4 13.9,-0.3 4.6,-13 4.6,13.1 13.9,0.3 -11.1,8.4 4,13.3 z"
         id="path2-5" />
      <path
         d="M 46.3,63.3 V 81 C 33.8,81.8 24.2,86.4 24.2,91.9 H 75.8 C 75.8,86.3 66.2,81.7 53.7,81 V 63.3 Z"
         id="path4-2" />
    </g>
  </g>
</svg>
