<?xml version="1.0" encoding="UTF-8" standalone="no"?>
<svg
   xmlns:dc="http://purl.org/dc/elements/1.1/"
   xmlns:cc="http://creativecommons.org/ns#"
   xmlns:rdf="http://www.w3.org/1999/02/22-rdf-syntax-ns#"
   xmlns:svg="http://www.w3.org/2000/svg"
   xmlns="http://www.w3.org/2000/svg"
   xmlns:sodipodi="http://sodipodi.sourceforge.net/DTD/sodipodi-0.dtd"
   xmlns:inkscape="http://www.inkscape.org/namespaces/inkscape"
   id="svg8"
   version="1.1"
   viewBox="0 0 210 297"
   height="297mm"
   width="210mm"
   sodipodi:docname="podium_beurre.svg"
   inkscape:version="0.92.1 r15371">
  <sodipodi:namedview
     pagecolor="#ffffff"
     bordercolor="#666666"
     borderopacity="1"
     objecttolerance="10"
     gridtolerance="10"
     guidetolerance="10"
     inkscape:pageopacity="0"
     inkscape:pageshadow="2"
     inkscape:window-width="3200"
     inkscape:window-height="1644"
     id="namedview28"
     showgrid="false"
     inkscape:zoom="0.5946522"
     inkscape:cx="208.07329"
     inkscape:cy="495.56779"
     inkscape:window-x="-16"
     inkscape:window-y="-16"
     inkscape:window-maximized="1"
     inkscape:current-layer="layer1" />
  <defs
     id="defs2">
    <style
       id="style32">.cls-1{fill:none;}.cls-1,.cls-2{stroke:#000;stroke-miterlimit:10;stroke-width:4px;}</style>
    <style
       id="style74">.cls-1{fill:none;}.cls-1,.cls-2{stroke:#000;stroke-miterlimit:10;stroke-width:4px;}</style>
    <style
       id="style2">.cls-1{fill:none;}.cls-1,.cls-2{stroke:#000;stroke-miterlimit:10;stroke-width:4px;}</style>
  </defs>
  <metadata
     id="metadata5">
    <rdf:RDF>
      <cc:Work
         rdf:about="">
        <dc:format>image/svg+xml</dc:format>
        <dc:type
           rdf:resource="http://purl.org/dc/dcmitype/StillImage" />
        <dc:title />
      </cc:Work>
    </rdf:RDF>
  </metadata>
  <g
     id="layer1">
    <g
       transform="matrix(0.36545434,0,0,0.3536853,131.82741,95.352484)"
       id="g30">
      <g
         style="display:none"
         display="none"
         id="g12">
        <path
           style="display:inline"
           display="inline"
           d="M 89.754,7.495 85.5,10.604 c 0,0 9.044,13.562 10.25,24.896 1.25,11.75 -0.25,16 -0.25,16 0,0 -16.099,-7.989 -25.125,-9.668 C 54.469,38.872 35.5,41.75 35.5,41.75 c 0,0 12,11 28.347,13.931 8.224,1.475 30.052,0 30.052,0 0,0 0.672,0.675 -1.149,6.069 -1.172,3.471 -4.032,7.921 -4.032,7.921 0,0 -5.573,-6.349 -9.718,-8.421 -4.145,-2.072 -11.75,-3 -15,1.25 -4.341,5.677 1.399,14.185 6.625,15.972 5.964,2.039 14.767,1.043 14.875,-0.511 0.108,-1.554 2.182,2.072 -4.036,6.736 -6.218,4.664 -6.218,4.664 -6.218,4.664 0,0 -9.028,-8.126 -15.246,-11.234 -6.218,-3.108 -18.433,-2.756 -18.433,-2.756 0,0 8.862,9.554 13.433,11.916 5.25,2.713 19,3.463 19,3.463 0,0 -0.679,4.75 -5.214,7.25 -4.535,2.5 -4.536,2.5 -4.536,2.5 0,0 -4,-8.25 -8.5,-10.5 -4.5,-2.25 -13.095,-3.997 -15.5,1.25 -2.75,6 2.75,11 7.75,13.25 0,0 11.75,0.5 13.25,-0.5 1.5,-1 0,-0.5 -4,3 -4,3.5 -13.005,7.75 -20,14.25 -6.995,6.5 -10.008,27.509 -10.008,27.509 0,0 10.758,-5.509 17.508,-13.759 6.75,-8.25 12,-22.5 12,-22.5 0,0 4.5,-6 9.25,-8.5 4.75,-2.5 7.5,-6 7.5,-6 l 0.75,3.5 c 0,0 -4.881,2.168 -8.25,6.5 -5.25,6.75 -2.051,14.458 2.786,15.5 6.964,1.5 11.464,-2.25 11.964,-10 C 81.362,104.006 76,101 76,101 L 74.75,96.75 81.5,90 c 0,0 -0.25,9.5 4,18.25 4.25,8.75 15.25,19 15.25,19 0,0 -0.988,-18.453 -2.25,-23.5 -1.25,-5 -13,-16.463 -13,-16.463 L 92.75,73 96,61.25 v 0 c 0,0 -2.213,11.889 -0.5,16.877 1.614,4.7 8.378,9.754 15.987,5.453 5.75,-3.25 5.078,-11.95 -0.237,-18.08 -5.241,-6.044 -13.5,-5.75 -13.5,-5.75 0,0 2.5,-7.75 2.5,-9.75 0,-2 0.913,-2.624 0.913,-2.624 0,0 8.092,14.048 21.587,23.624 13.655,9.689 26.75,13.5 26.75,13.5 0,0 -10.898,-19.667 -20.297,-27.604 C 117.953,47.396 102,41.25 102,41.25 102,41.25 102.513,38.942 99.75,27 97.604,17.723 91.637,9.38 89.754,7.495 Z"
           id="path10" />
      </g>
      <g
         id="g16">
        <path
           d="m 90.86725,7.495 -5.992282,4.001683 c 0,0 12.739575,17.456038 14.438378,32.044354 1.760774,15.123761 -0.352157,20.594057 -0.352157,20.594057 0,0 -22.677407,-10.28287 -35.391627,-12.443959 -22.405539,-3.8099 -49.125687,-0.105547 -49.125687,-0.105547 0,0 16.903463,14.158415 39.930203,17.930989 11.584507,1.898514 42.331907,0 42.331907,0 0,0 0.946594,0.868811 -1.618513,7.811583 -1.650897,4.467623 -5.679565,10.195345 -5.679565,10.195345 0,0 -7.850244,-8.171979 -13.688982,-10.838909 -5.838737,-2.666931 -16.551306,-3.861386 -21.129328,1.60891 -6.114827,7.30703 1.970663,18.257919 9.33212,20.558019 8.401021,2.624455 19.544628,0.08495 22.361872,-2.753169 1.474831,-1.485346 -0.469072,6.864254 -7.09382,10.765544 -9.202526,5.4201 -8.758811,6.00317 -8.758811,6.00317 0,0 -12.717037,-10.45921 -21.475847,-14.459605 C 40.1963,94.40707 22.989983,94.860139 22.989983,94.860139 c 0,0 12.483208,12.297231 18.922018,15.337421 7.395264,3.49198 26.763815,4.45733 26.763815,4.45733 0,0 -0.956454,6.11387 -7.344554,9.33168 -6.3881,3.21783 -6.389509,3.21783 -6.389509,3.21783 0,0 -5.634488,-10.61881 -11.973286,-13.51486 -6.338798,-2.89604 -18.445902,-5.14465 -21.833639,1.60891 -3.87371,7.72277 6.220475,15.55239 10.21251,16.62456 3.992033,1.07218 17.255617,1.07347 19.368549,-0.21367 2.112934,-1.28712 0,-0.64356 -5.634487,3.8614 -5.634488,4.50495 -18.319127,9.97524 -28.172436,18.34157 -9.8533105,8.36634 -14.0974881,35.40762 -14.0974881,35.40762 0,0 15.1539531,-7.09078 24.6621511,-17.70959 9.508198,-10.61882 16.903462,-28.9604 16.903462,-28.9604 0,0 6.338798,-7.72277 13.029752,-10.9406 6.690954,-3.21782 10.564664,-7.72277 10.564664,-7.72277 l 1.056466,4.50495 c 0,0 -6.875483,2.7905 -11.62113,8.36634 -7.395265,8.68812 -2.889083,18.60931 3.924421,19.9505 9.809642,1.93069 16.148441,-2.89605 16.852751,-12.87129 0.862077,-12.22 -6.690954,-16.08911 -6.690954,-16.08911 l -1.760776,-5.47029 9.508197,-8.68813 c 0,0 -0.352156,12.22773 5.634488,23.4901 5.986642,11.26238 21.481482,24.45544 21.481482,24.45544 0,0 -1.39172,-23.75138 -3.1694,-30.24751 -1.76077,-6.43565 -18.312082,-21.19001 -18.312082,-21.19001 l 10.212504,-18.389203 4.57802,-15.123761 v 0 c 0,0 -3.117278,15.302671 -0.704303,21.722869 2.273511,6.049505 11.801421,12.554655 22.519631,7.018715 8.09958,-4.18317 7.15299,-15.381189 -0.33384,-23.271288 -7.38258,-7.779405 -19.0164,-7.400989 -19.0164,-7.400989 0,0 3.52156,-9.975246 3.52156,-12.549504 0,-2.574257 1.28607,-3.377426 1.28607,-3.377426 0,0 11.39857,18.081583 30.40792,30.407127 19.23474,12.47099 37.68064,17.37624 37.68064,17.37624 0,0 -15.35116,-25.313962 -28.5908,-35.529902 -15.847,-12.227722 -38.31874,-20.138414 -38.31874,-20.138414 0,0 0.72262,-2.970693 -3.1694,-18.341583 C 101.92493,20.659751 93.519674,9.9212374 90.86725,7.495 Z"
           id="path14"
           style="stroke-width:1.34650564" />
      </g>
    </g>
    <g
       transform="matrix(0.26458333,0,0,0.26458333,63.420624,92.926876)"
       id="g147">
      <path
         d="m 66.4,50.6 c 1.8,-0.5 4.1,-1.2 7,-2.1 C 97,40.9 94.1,11.6 94.1,11.6 H 81.7 75.8 V 7.9 H 24.2 v 3.7 H 18.3 5.9 c 0,0 -3,29.4 20.6,36.8 2.9,0.9 5.2,1.6 7,2.1 3.6,4.3 8,7.4 12.8,8.5 h 7.4 c 4.8,-1 9.2,-4.1 12.7,-8.4 m 9.4,-26.8 v -8.5 h 5.9 8.8 c -0.1,7.3 -2,24.5 -18.2,29.7 -0.9,0.3 -1.8,0.6 -2.5,0.8 3.7,-6.4 6,-14.3 6,-22 z M 27.6,44.9 C 11.4,39.8 9.5,22.6 9.4,15.3 h 8.8 5.9 v 8.5 c 0,7.7 2.2,15.6 6,21.9 -0.7,-0.2 -1.6,-0.5 -2.5,-0.8 m 22.4,-4.4 -11.4,7.9 4,-13.3 -11.1,-8.4 13.9,-0.3 4.6,-13 4.6,13.1 13.9,0.3 -11.1,8.4 4,13.3 z"
         id="path2"
         inkscape:connector-curvature="0" />
      <path
         d="M 46.3,63.3 V 81 C 33.8,81.8 24.2,86.4 24.2,91.9 H 75.8 C 75.8,86.3 66.2,81.7 53.7,81 V 63.3 Z"
         id="path4"
         inkscape:connector-curvature="0" />
    </g>
    <g
       transform="matrix(0.26458333,0,0,0.26458333,182.56255,93.138542)"
       id="g157">
      <path
         d="m 66.4,50.6 c 1.8,-0.5 4.1,-1.2 7,-2.1 C 97,40.9 94.1,11.6 94.1,11.6 H 81.7 75.8 V 7.9 H 24.2 v 3.7 H 18.3 5.9 c 0,0 -3,29.4 20.6,36.8 2.9,0.9 5.2,1.6 7,2.1 3.6,4.3 8,7.4 12.8,8.5 h 7.4 c 4.8,-1 9.2,-4.1 12.7,-8.4 m 9.4,-26.8 v -8.5 h 5.9 8.8 c -0.1,7.3 -2,24.5 -18.2,29.7 -0.9,0.3 -1.8,0.6 -2.5,0.8 3.7,-6.4 6,-14.3 6,-22 z M 27.6,44.9 C 11.4,39.8 9.5,22.6 9.4,15.3 h 8.8 5.9 v 8.5 c 0,7.7 2.2,15.6 6,21.9 -0.7,-0.2 -1.6,-0.5 -2.5,-0.8 m 22.4,-4.4 -11.4,7.9 4,-13.3 -11.1,-8.4 13.9,-0.3 4.6,-13 4.6,13.1 13.9,0.3 -11.1,8.4 4,13.3 z"
         id="path2-5" />
      <path
         d="M 46.3,63.3 V 81 C 33.8,81.8 24.2,86.4 24.2,91.9 H 75.8 C 75.8,86.3 66.2,81.7 53.7,81 V 63.3 Z"
         id="path4-2" />
    </g>
    <g
       transform="matrix(0.60003806,0,0,0.61470172,23.254679,99.877177)"
       id="g4">
      <path
         inkscape:connector-curvature="0"
         d="m 53.912,8.114 c 0.236,0 0.475,0 0.712,0 0.638,0.193 1.073,0.64 1.465,1.143 1.595,2.048 2.519,4.366 2.698,6.952 0.137,1.926 -0.405,3.593 -1.855,4.989 -2.599,2.501 -5.117,5.083 -7.672,7.631 -0.092,0.093 -0.177,0.193 -0.317,0.347 0.245,0 0.39,0 0.534,0 3.28,0 6.561,0.015 9.841,-0.011 0.797,-0.006 1.399,0.249 1.959,0.814 6.27,6.334 12.552,12.655 18.836,18.975 0.188,0.188 0.436,0.337 0.678,0.456 1.557,0.768 3.146,1.468 4.674,2.289 3.71,1.99 7.135,4.378 9.957,7.542 1.896,2.127 3.393,4.489 4.126,7.272 0.2,0.758 0.304,1.541 0.453,2.314 0,0.656 0,1.314 0,1.971 -0.024,0.102 -0.06,0.202 -0.067,0.302 -0.216,2.148 -0.97,4.105 -2.121,5.92 -1.56,2.451 -3.648,4.379 -6.018,6.021 -3.568,2.473 -7.513,4.158 -11.641,5.439 -6.67,2.072 -13.523,3.018 -20.479,3.315 -4.61,0.199 -9.218,0.058 -13.814,-0.375 C 40.715,90.939 35.634,90.086 30.63,88.793 24.765,87.274 19.098,85.231 13.803,82.248 10.365,80.31 7.183,78.037 4.55,75.067 2.668,72.946 1.18,70.592 0.453,67.821 0.253,67.063 0.149,66.281 0.002,65.51 c 0,-0.658 0,-1.318 0,-1.976 0.038,-0.244 0.079,-0.488 0.114,-0.729 0.381,-2.636 1.505,-4.937 3.157,-6.994 2.09,-2.609 4.691,-4.619 7.629,-6.158 1.614,-0.846 3.019,-1.883 4.229,-3.223 0.2,-0.221 0.294,-0.424 0.293,-0.723 -0.009,-4.894 -0.007,-9.787 -0.006,-14.682 0,-1.117 0.827,-1.91 1.937,-1.868 0.199,0.007 0.396,0.014 0.594,0.014 4.664,0.001 9.327,-0.003 13.989,0.009 0.348,0.001 0.585,-0.112 0.823,-0.35 6.63,-6.626 13.262,-13.249 19.908,-19.858 0.352,-0.346 0.825,-0.574 1.243,-0.858 z m 23.654,70.721 c 0,-8.76 0,-17.485 0,-26.222 -12.957,0 -25.885,0 -38.8,0 0,8.757 0,17.482 0,26.222 12.939,0 25.845,0 38.8,0 z M 10.209,54.312 c -0.11,0.06 -0.157,0.08 -0.197,0.107 -1.554,1.105 -2.975,2.354 -4.13,3.879 -1.262,1.668 -2.12,3.5 -2.261,5.623 -0.132,1.979 0.386,3.803 1.318,5.523 1.371,2.535 3.342,4.549 5.58,6.318 3.36,2.657 7.114,4.637 11.067,6.241 9.919,4.029 20.287,5.861 30.946,6.238 4.282,0.151 8.559,-0.009 12.821,-0.457 4.092,-0.435 8.131,-1.142 12.092,-2.255 3.877,-1.09 7.617,-2.512 11.062,-4.633 2.204,-1.354 4.208,-2.944 5.752,-5.049 2.159,-2.945 2.793,-6.131 1.43,-9.598 -0.939,-2.389 -2.513,-4.336 -4.359,-6.076 -2.924,-2.754 -6.327,-4.785 -9.926,-6.516 -0.057,-0.026 -0.117,-0.041 -0.215,-0.075 0,0.188 0,0.345 0,0.499 0,8.748 -0.015,17.498 0.015,26.248 0.006,1.219 -0.777,2.111 -2.089,2.102 -4.73,-0.041 -9.458,-0.018 -14.189,-0.016 -9.314,0.004 -18.627,0.008 -27.941,0.014 -0.541,0 -0.997,-0.18 -1.379,-0.568 -1.435,-1.45 -2.872,-2.897 -4.311,-4.346 C 27.332,73.527 23.368,69.54 19.399,65.56 19.263,65.425 19.056,65.31 18.868,65.282 14.846,64.681 12.107,62.484 10.682,58.689 10.159,57.311 10.028,55.855 10.209,54.312 Z m 23.958,-8.981 c -0.037,0.055 -0.071,0.11 -0.108,0.165 1.165,1.123 2.324,2.25 3.497,3.363 0.096,0.094 0.281,0.133 0.426,0.133 12.238,0.006 24.478,0.006 36.715,0.005 0.097,-10e-4 0.189,-0.021 0.32,-0.035 -0.065,-0.082 -0.096,-0.125 -0.131,-0.162 -5.25,-5.288 -10.5,-10.577 -15.76,-15.856 -0.111,-0.112 -0.318,-0.183 -0.48,-0.184 -4.27,-0.01 -8.538,-0.008 -12.807,-0.007 -0.094,0 -0.189,0.02 -0.284,0.03 -0.018,0.031 -0.035,0.062 -0.052,0.093 0.114,0.089 0.239,0.167 0.341,0.269 1.286,1.284 2.57,2.569 3.852,3.857 0.874,0.879 0.878,1.902 0.011,2.776 -0.546,0.552 -1.1,1.098 -1.646,1.648 -0.079,0.078 -0.145,0.167 -0.214,0.247 0.032,0.035 0.041,0.052 0.049,0.052 0.618,0.006 1.237,0 1.855,0.019 0.764,0.023 1.419,0.544 1.632,1.271 0.353,1.195 -0.511,2.293 -1.815,2.296 -4.98,0.01 -9.96,0.014 -14.939,0.02 -0.154,0 -0.309,0 -0.462,0 z m 2.901,-15.82 c -0.097,0.13 -0.17,0.259 -0.271,0.361 -5.701,5.693 -11.403,11.383 -17.105,17.073 -1.359,1.358 -2.73,2.706 -4.079,4.075 -1.598,1.619 -2.211,3.572 -1.728,5.787 0.518,2.375 1.995,3.984 4.333,4.674 2.349,0.693 4.456,0.135 6.226,-1.563 1.062,-1.022 2.084,-2.088 3.139,-3.117 0.244,-0.235 0.349,-0.475 0.348,-0.817 -0.012,-4.066 -0.006,-8.131 -0.008,-12.196 0,-0.54 0.102,-1.043 0.478,-1.46 0.429,-0.48 0.981,-0.604 1.602,-0.603 4.096,0.009 8.193,0.002 12.289,0.01 0.273,0 0.467,-0.076 0.656,-0.27 0.933,-0.948 1.879,-1.882 2.819,-2.822 0.078,-0.079 0.146,-0.167 0.181,-0.206 C 43,35.473 40.078,32.535 37.068,29.511 Z M 23.623,64.773 c 3.826,3.744 7.675,7.511 11.524,11.277 -0.013,0.029 -0.028,0.057 -0.042,0.086 0,-0.113 0,-0.225 0,-0.338 0,-7.984 0.002,-15.969 -0.01,-23.953 -10e-4,-0.193 -0.109,-0.43 -0.245,-0.57 -0.998,-1.03 -2.016,-2.042 -3.028,-3.059 -0.07,-0.069 -0.147,-0.127 -0.274,-0.236 0,0.213 0,0.354 0,0.495 -10e-4,4.524 0,9.049 -0.005,13.575 -10e-4,1.066 -0.77,1.863 -1.78,1.871 -0.993,0.01 -1.762,-0.758 -1.805,-1.803 -0.006,-0.174 -10e-4,-0.348 -10e-4,-0.568 -0.713,0.643 -1.318,1.275 -2.011,1.789 -0.701,0.524 -1.49,0.931 -2.323,1.434 z M 42.869,30.124 c 0.046,-0.042 0.087,-0.075 0.123,-0.111 3.896,-3.887 7.798,-7.768 11.673,-11.674 0.271,-0.272 0.455,-0.726 0.495,-1.115 0.162,-1.611 -0.326,-3.087 -1.082,-4.488 -0.008,-0.015 -0.043,-0.015 -0.049,-0.016 -4.771,4.77 -9.537,9.532 -14.287,14.28 1.027,1.026 2.067,2.064 3.127,3.124 z m -21.288,2.648 c 1.251,1.221 2.445,2.387 3.578,3.492 1.145,-1.141 2.332,-2.323 3.505,-3.492 -2.302,0 -4.649,0 -7.083,0 z m 0.931,6.222 c -1.163,-1.152 -2.337,-2.318 -3.453,-3.425 0,2.225 0,4.545 0,6.868 1.187,-1.184 2.35,-2.343 3.453,-3.443 z"
         id="path2-56" />
    </g>
  </g>
</svg>
